# xmcd
#
# Track frame offsets: 
#        150
#        4285
#        21582
#        43072
#        57870
#        74060
#        89625
#        109567
#        129295
#        148037
#        165542
#        180390
#        202717
#        231222
#        247580
#        251027
#        256660
#
# Disc length: 3668 seconds
#
# Revision: 0
# Processed by: cddbd v1.5.2PL0 Copyright (c) Steve Scherf et al.
# Submitted via: ExactAudioCopyFreeDBPlugin 1.0
#
DISCID=e30e5211
DTITLE=Danny - White Chocolate
DYEAR=2000
DGENRE=R&B
TTITLE0=Ghetto Girl
TTITLE1=Married Man
TTITLE2=I Want U Want U
TTITLE3=Something About U
TTITLE4=2 Girls
TTITLE5=Hustlin' Feat. S.O.S.C.
TTITLE6=I Was Wrong
TTITLE7=You're All I Want
TTITLE8=Can We Still Be Friends
TTITLE9=Small Things
TTITLE10=Once Lovers, Now Friends
TTITLE11=Party With Me
TTITLE12=Running Out Of Time
TTITLE13=Something About Mary (Remix)
TTITLE14=Thank You's
TTITLE15=Commercial
TTITLE16=Mary Jane (Bonus Track)
EXTD=
EXTT0=
EXTT1=
EXTT2=
EXTT3=
EXTT4=
EXTT5=
EXTT6=
EXTT7=
EXTT8=
EXTT9=
EXTT10=
EXTT11=
EXTT12=
EXTT13=
EXTT14=
EXTT15=
EXTT16=
PLAYORDER=
